<?xml version="1.0" standalone="no"?>
<!DOCTYPE svg PUBLIC "-//W3C//DTD SVG 20010904//EN"
 "http://www.w3.org/TR/2001/REC-SVG-20010904/DTD/svg10.dtd">
<svg version="1.0" xmlns="http://www.w3.org/2000/svg"
 width="1173.000000pt" height="1194.000000pt" viewBox="0 0 1173.000000 1194.000000"
 preserveAspectRatio="xMidYMid meet">

<g transform="translate(0.000000,1194.000000) scale(0.100000,-0.100000)"
fill="#000000" stroke="none">
<path d="M5380 11855 c-1033 -97 -1927 -409 -2750 -958 -574 -384 -1076 -871
-1483 -1442 -414 -578 -723 -1248 -905 -1956 -125 -485 -190 -944 -199 -1419
-27 -1324 385 -2611 1170 -3656 615 -818 1490 -1500 2457 -1914 534 -229 1039
-365 1605 -435 1034 -126 2158 81 3130 575 453 230 795 456 1186 781 144 120
547 519 671 664 639 751 1079 1623 1283 2542 169 760 196 1466 84 2208 -104
694 -340 1409 -659 1995 -289 533 -602 953 -1019 1371 -297 296 -539 494 -883
721 -760 503 -1554 789 -2528 909 -148 18 -239 22 -595 24 -300 3 -461 0 -565
-10z m-3445 -2927 c65 -24 140 -91 178 -158 58 -100 57 -91 57 -990 0 -891 1
-899 54 -1016 51 -110 165 -198 294 -225 78 -16 223 -6 292 20 123 47 205 130
252 256 l23 60 5 875 c6 959 2 906 65 1015 142 247 502 257 666 18 l31 -44
-65 -67 c-118 -123 -209 -287 -254 -461 -35 -136 -38 -355 -5 -486 43 -171
146 -338 275 -449 l57 -48 0 -125 c0 -131 -12 -268 -34 -370 -7 -35 -9 -63 -6
-63 4 0 18 8 31 19 32 25 111 51 154 51 20 0 81 -20 138 -44 286 -122 577
-185 787 -172 115 7 176 26 220 69 99 96 72 241 -58 306 -57 29 -126 50 -362
110 -316 79 -584 170 -678 228 -110 68 -146 95 -212 163 -89 91 -166 228 -200
355 -19 71 -21 98 -17 235 4 118 10 171 26 225 94 311 337 557 658 666 166 56
227 64 488 64 157 0 264 -5 310 -13 254 -48 465 -116 613 -198 56 -30 63 -32
68 -16 16 54 70 144 101 168 72 55 62 54 898 54 676 0 777 -2 818 -16 128 -43
217 -201 203 -361 -9 -110 -39 -178 -110 -249 -100 -100 -105 -100 -526 -107
-400 -5 -413 -8 -479 -82 -48 -56 -61 -94 -61 -185 0 -95 13 -132 66 -181 63
-59 81 -62 389 -68 280 -6 280 -6 336 -34 62 -30 136 -103 167 -163 83 -163
24 -387 -125 -482 -86 -55 -132 -62 -383 -62 -253 0 -299 -8 -363 -61 -21 -17
-48 -50 -60 -72 -21 -40 -22 -57 -28 -342 -5 -297 -5 -301 -32 -369 -46 -118
-111 -189 -217 -239 -55 -26 -80 -32 -158 -35 -78 -4 -103 -1 -155 18 -99 36
-173 102 -226 201 -63 116 -61 90 -61 1175 0 543 -2 989 -5 992 -3 3 -5 0 -5
-7 0 -25 -92 -110 -138 -128 -76 -29 -139 -22 -315 35 -258 84 -372 105 -567
106 -163 1 -166 1 -212 -26 -64 -38 -93 -98 -85 -175 10 -99 61 -132 295 -195
81 -21 181 -48 222 -59 134 -36 213 -60 345 -106 173 -60 187 -66 278 -121
l77 -47 0 -645 c0 -641 3 -697 34 -772 10 -23 -114 -115 -228 -169 -287 -134
-728 -155 -1130 -53 -215 54 -526 185 -588 248 -38 38 -69 99 -82 164 l-11 53
-66 -84 c-228 -289 -616 -447 -1044 -423 -527 29 -913 307 -1059 762 -63 194
-60 136 -63 1122 -3 796 -2 911 12 965 58 228 277 347 490 265z m7762 1 c76
-29 145 -95 186 -178 l32 -66 3 -492 3 -492 427 -3 427 -3 57 -27 c130 -61
208 -172 216 -307 10 -182 -85 -327 -253 -384 -17 -6 -186 -13 -390 -16 -351
-6 -361 -7 -407 -29 -76 -37 -141 -103 -174 -174 l-29 -63 -6 -330 c-3 -202
-10 -343 -17 -363 -18 -52 -70 -134 -110 -171 -62 -56 -136 -85 -227 -89 -99
-5 -171 19 -240 80 -57 51 -88 98 -115 177 -19 57 -20 84 -20 510 l0 450 -407
3 c-399 3 -409 3 -465 26 -80 32 -150 99 -190 180 -30 60 -33 75 -33 157 0
118 31 191 116 269 104 97 116 99 524 106 329 5 353 6 395 26 68 32 135 97
167 162 l28 57 5 360 c6 346 7 362 29 415 46 111 128 189 231 221 54 16 177
10 237 -12z m-894 -277 c80 -38 143 -101 181 -182 28 -58 31 -75 31 -160 0
-85 -3 -102 -31 -160 -39 -83 -95 -139 -175 -179 -151 -73 -314 -40 -429 86
-107 117 -126 283 -50 434 28 55 103 129 160 159 91 48 215 48 313 2z m1655
-1856 c109 -29 193 -99 244 -205 29 -59 32 -76 33 -157 0 -85 -2 -95 -38 -166
-42 -86 -91 -134 -177 -176 -49 -24 -66 -27 -160 -27 -90 1 -111 4 -149 24
-188 98 -262 322 -170 509 79 161 250 242 417 198z m-397 -1206 c28 -15 25
-58 -16 -218 -51 -205 -86 -404 -90 -522 -1 -61 -7 -106 -13 -108 -23 -7 -52
20 -62 58 -17 64 11 296 61 492 10 42 19 82 19 90 0 7 -29 -42 -64 -110 -77
-147 -81 -152 -117 -152 -52 0 -64 35 -63 182 0 70 -3 125 -7 122 -24 -15
-114 -381 -134 -546 -8 -63 -22 -81 -57 -76 -19 2 -23 10 -26 46 -5 73 53 344
119 547 31 99 78 175 107 175 36 0 42 -20 42 -139 0 -126 9 -221 20 -221 4 0
22 27 41 61 128 228 194 329 214 329 4 0 15 -5 26 -10z m-7780 -141 c27 -27
21 -67 -13 -92 l-28 -21 -27 21 c-16 11 -29 32 -31 46 -4 30 28 67 58 67 11 0
29 -9 41 -21z m6759 1 c28 -28 25 -64 -6 -89 -34 -27 -40 -26 -69 4 -30 29
-32 54 -5 83 26 27 54 28 80 2z m-4098 -10 c32 -9 98 -68 98 -88 0 -4 -19 -18
-41 -30 l-41 -24 -24 22 c-29 28 -91 33 -107 8 -16 -25 -1 -37 72 -54 34 -7
76 -21 92 -30 57 -29 73 -118 32 -180 -38 -59 -159 -81 -239 -45 -42 19 -100
83 -90 99 3 5 23 16 44 26 l39 18 31 -31 c22 -23 40 -31 66 -31 63 0 85 53 27
66 -114 26 -138 35 -163 64 -33 36 -38 102 -12 151 29 56 127 83 216 59z m738
-1 c0 -6 -14 -31 -32 -55 -26 -36 -37 -44 -63 -44 -17 0 -34 3 -38 6 -3 4 5
28 19 55 24 48 26 49 69 49 26 0 45 -5 45 -11z m3100 3 c0 -5 -14 -27 -32 -50
-26 -34 -38 -42 -65 -42 -18 0 -33 2 -33 5 0 2 10 25 22 50 21 43 24 45 65 45
24 0 43 -4 43 -8z m-7240 -147 c0 -132 2 -147 20 -165 23 -23 68 -26 96 -6 17
13 19 30 22 165 l3 151 55 0 54 0 0 -153 c0 -139 -2 -157 -22 -197 -32 -64
-91 -93 -175 -88 -70 4 -103 23 -140 78 -22 31 -23 43 -23 196 l0 164 55 0 55
0 0 -145z m1111 -7 c1 -84 3 -181 5 -215 l3 -63 -55 0 c-31 0 -54 4 -54 11 0
5 -10 3 -22 -5 -51 -36 -138 -8 -179 56 -30 49 -24 152 14 201 40 53 102 68
170 42 15 -6 17 0 17 59 l0 66 50 0 50 0 1 -152z m719 -63 l0 -215 -50 0 c-27
0 -50 5 -50 10 0 6 -11 3 -25 -6 -35 -23 -108 -14 -142 17 -38 36 -53 73 -53
131 0 100 65 175 145 165 22 -3 48 -8 58 -12 15 -6 17 0 17 59 l0 66 50 0 50
0 0 -215z m830 -1 l0 -215 -62 1 c-35 1 -81 -2 -104 -5 -138 -23 -218 168
-116 277 42 46 88 55 163 32 15 -4 16 3 12 61 l-6 65 57 0 56 0 0 -216z m1900
1 l0 -215 -50 0 c-28 0 -50 5 -50 10 0 6 -13 4 -30 -5 -56 -29 -115 -13 -164
45 -22 27 -26 41 -26 98 0 78 21 120 72 152 39 24 73 25 111 6 l27 -15 0 70 0
69 55 0 55 0 0 -215z m815 113 c3 -57 5 -152 3 -213 l-3 -110 -65 -3 c-36 -1
-83 -5 -105 -8 -86 -11 -150 57 -150 161 0 73 24 119 77 146 44 23 73 24 111
5 l27 -15 0 70 0 69 49 0 49 0 7 -102z m844 52 l2 -50 -96 0 -95 0 0 -40 0
-40 80 0 80 0 0 -50 0 -50 -80 0 -80 0 0 -75 0 -75 -55 0 -55 0 0 215 0 215
148 0 148 0 3 -50z m1141 -165 l0 -215 -55 0 -55 0 0 215 0 215 55 0 55 0 0
-215z m1610 190 c10 -12 8 -21 -10 -50 -25 -40 -53 -43 -58 -7 -4 27 22 72 42
72 7 0 19 -7 26 -15z m190 -90 c15 -18 8 -51 -9 -47 -39 8 -75 -69 -66 -139
l7 -48 68 45 c76 49 80 50 80 29 0 -8 -31 -36 -70 -61 l-70 -47 0 -48 c0 -56
-13 -95 -43 -127 -52 -57 -112 -64 -143 -18 -14 22 -14 27 1 57 10 18 37 53
61 79 36 39 42 50 36 73 -7 25 -8 25 -52 -31 -53 -67 -103 -97 -134 -80 -28
15 -36 28 -36 62 l0 28 -40 -36 c-22 -20 -45 -36 -50 -36 -21 0 -60 49 -60 74
0 24 -2 23 -45 -19 -48 -49 -84 -58 -117 -28 -22 20 -24 89 -4 138 56 133 156
191 214 125 9 -11 25 -20 35 -20 31 0 31 -31 0 -120 -17 -48 -28 -92 -23 -99
13 -21 79 66 126 167 44 94 65 112 94 78 9 -12 4 -36 -24 -121 -57 -168 -48
-183 43 -73 42 51 61 83 65 112 9 52 44 114 76 132 33 18 65 17 80 -1z m-8626
-5 c51 -19 66 -62 66 -192 l0 -118 -50 0 -50 0 0 91 c0 101 -10 129 -45 129
-41 0 -55 -34 -55 -132 l0 -88 -50 0 -50 0 0 155 0 155 49 0 c27 0 51 -5 53
-11 2 -6 14 -5 33 5 35 18 63 20 99 6z m809 -4 c15 -8 27 -11 27 -5 0 5 23 9
50 9 l50 0 0 -156 0 -155 -62 0 c-35 1 -83 -1 -108 -4 -84 -11 -150 56 -150
150 0 123 102 208 193 161z m770 -12 c40 -29 69 -88 65 -131 l-3 -38 -105 -5
c-103 -5 -105 -5 -80 -22 29 -21 58 -22 84 -3 16 12 22 11 52 -8 19 -12 34
-25 34 -29 0 -15 -63 -58 -96 -64 -111 -21 -194 48 -194 161 0 69 38 128 100
154 36 15 113 7 143 -15z m826 -1 c36 -27 61 -80 61 -130 l0 -43 -100 0 c-98
0 -121 -8 -81 -30 28 -14 62 -12 81 5 14 13 20 12 49 -6 41 -25 38 -47 -14
-76 -137 -78 -287 54 -230 203 17 44 61 87 100 97 37 10 107 -1 134 -20z m856
14 l60 -2 3 -153 3 -153 -68 1 c-38 0 -86 -2 -108 -5 -56 -8 -104 19 -132 75
-62 120 17 261 137 245 25 -3 72 -7 105 -8z m1045 -17 c38 -27 60 -74 60 -130
l0 -40 -100 0 c-98 0 -121 -8 -81 -30 28 -15 62 -12 82 6 17 15 20 14 48 -6
17 -12 31 -24 31 -28 -2 -31 -73 -72 -125 -72 -133 0 -209 149 -132 260 48 72
147 90 217 40z m762 16 c16 -9 30 -11 33 -5 4 5 26 9 50 9 52 0 51 4 47 -182
l-3 -128 -50 0 c-27 0 -49 4 -49 9 0 6 -12 3 -27 -5 -40 -20 -85 -17 -124 9
-51 34 -71 80 -67 154 4 72 24 106 78 134 41 23 75 24 112 5z m886 4 l62 1 0
-156 0 -156 -67 0 c-38 -1 -91 -2 -120 -2 -47 -2 -56 2 -87 32 -109 106 -33
306 109 285 22 -3 68 -5 103 -4z m352 -15 c18 -16 21 -16 46 4 50 40 130 19
155 -41 9 -21 14 -72 14 -143 l0 -110 -47 -3 -48 -3 0 91 c0 97 -10 130 -38
130 -35 0 -42 -21 -42 -122 l0 -98 -50 0 -50 0 0 91 c0 96 -10 129 -38 129
-35 0 -42 -21 -42 -122 l0 -98 -50 0 -50 0 0 155 0 155 50 0 c28 0 50 -5 50
-11 0 -5 10 -3 23 6 27 20 90 14 117 -10z m902 11 c16 -9 30 -11 33 -5 4 5 26
9 51 9 l44 0 0 -156 0 -155 -62 -1 c-35 0 -89 0 -121 -1 -55 -2 -60 0 -92 35
-42 45 -59 102 -46 157 22 101 115 157 193 117z m-6992 -151 l0 -155 -50 0
-50 0 0 155 0 155 50 0 50 0 0 -155z m3250 64 c0 -99 10 -129 42 -129 46 0 58
26 58 127 l0 93 50 0 50 0 0 -155 0 -155 -50 0 c-28 0 -50 5 -50 11 0 5 -10 3
-22 -5 -29 -20 -81 -20 -119 0 -46 23 -59 67 -59 194 l0 110 50 0 50 0 0 -91z
m3200 -64 l0 -155 -50 0 -50 0 0 155 0 155 50 0 50 0 0 -155z m308 -2 l3 -153
-51 0 -50 0 0 156 0 155 48 -3 47 -3 3 -152z m-1758 -565 c0 -7 -31 -105 -68
-218 l-67 -205 -33 -3 c-17 -2 -32 1 -32 7 0 12 94 304 122 379 17 46 23 52
49 52 17 0 29 -5 29 -12z m-1252 -21 c15 -12 16 -49 0 -65 -28 -28 -78 -7 -78
32 0 44 40 62 78 33z m-3760 -30 c3 -35 1 -38 -20 -35 -15 2 -24 -3 -26 -14
-3 -14 3 -18 22 -18 23 0 26 -4 26 -35 0 -19 -4 -36 -10 -36 -5 -1 -16 -2 -22
-3 -9 -1 -15 -28 -18 -86 l-5 -85 -37 -3 -38 -3 0 85 c0 79 -2 86 -20 86 -17
0 -20 7 -20 40 0 33 3 40 20 40 16 0 20 7 20 30 0 46 40 82 88 78 35 -3 37 -5
40 -41z m1801 21 c13 -35 -7 -70 -37 -66 -32 4 -47 28 -38 61 5 22 12 27 37
27 22 0 32 -6 38 -22z m6255 -11 c15 -19 26 -39 26 -45 0 -18 -46 -14 -65 5
-12 12 -19 13 -24 4 -9 -13 -49 -23 -63 -15 -10 6 16 52 40 72 28 22 60 14 86
-21z m-7436 -11 c22 -22 27 -35 27 -78 0 -49 -2 -52 -59 -104 l-59 -54 61 0
62 0 0 -40 0 -40 -120 0 -120 0 0 38 c1 42 12 57 93 126 47 39 58 53 55 75 -2
20 -9 27 -29 29 -14 2 -31 -4 -39 -12 -16 -20 -34 -20 -65 0 -23 15 -24 17 -8
40 26 40 62 55 121 51 42 -3 59 -10 80 -31z m261 23 c53 -19 78 -91 46 -136
-13 -18 -12 -22 5 -38 45 -40 29 -119 -30 -150 -42 -22 -128 -19 -168 5 -55
34 -67 91 -27 138 22 26 23 31 10 42 -17 14 -20 72 -5 100 24 44 102 62 169
39z m567 1 c18 0 26 -16 54 -110 18 -61 36 -107 40 -103 4 4 20 53 35 108 15
55 30 103 34 107 3 4 25 4 47 1 l42 -5 -58 -167 -57 -166 -48 0 -49 0 -57 165
c-31 91 -54 169 -52 173 3 5 15 6 27 3 11 -3 30 -6 42 -6z m472 -162 l-3 -173
-37 -3 -38 -3 0 175 0 176 40 0 40 0 -2 -172z m652 137 c38 -37 38 -48 -4 -68
-32 -15 -35 -15 -52 4 -24 27 -79 23 -79 -6 0 -15 11 -22 50 -31 70 -15 95
-30 111 -69 21 -51 -1 -106 -51 -130 -65 -30 -166 -11 -200 39 -21 29 -19 33
16 52 29 15 32 15 54 -6 22 -21 72 -29 94 -16 20 13 12 36 -16 42 -85 19 -104
27 -127 55 -30 35 -33 67 -11 109 23 44 60 61 128 57 47 -3 62 -8 87 -32z
m200 25 c13 -7 21 -7 25 0 12 19 45 11 45 -10 0 -31 -37 -63 -63 -53 -12 4
-39 7 -59 6 -33 -2 -38 0 -38 20 0 43 45 61 90 37z m595 1 c28 -1 34 -8 66
-73 l36 -72 34 69 c19 38 41 73 50 78 9 6 32 7 53 3 l36 -7 -2 -167 -3 -167
-34 -3 c-19 -2 -37 2 -41 8 -4 6 -6 51 -4 101 1 49 -1 87 -5 85 -3 -2 -20 -32
-36 -66 -37 -78 -58 -78 -100 2 -17 31 -34 60 -37 64 -4 3 -6 -38 -5 -92 l2
-99 -42 -3 -43 -3 0 169 c0 93 3 171 6 174 3 3 13 5 22 3 9 -2 31 -4 47 -4z
m1323 -163 l-3 -173 -37 -3 -38 -3 0 175 0 176 40 0 40 0 -2 -172z m2445 161
c31 -16 67 -50 67 -63 0 -6 -12 -20 -27 -30 -20 -15 -29 -17 -42 -7 -42 30
-60 34 -91 21 -55 -23 -65 -116 -18 -160 30 -27 69 -25 98 5 l23 25 -36 0
c-36 0 -37 1 -37 35 l0 35 75 0 75 0 0 -42 c0 -164 -194 -217 -287 -79 -49 73
-20 206 54 249 42 24 111 29 146 11z m202 -164 l0 -170 -37 -3 -38 -3 0 176 0
176 38 -3 37 -3 0 -170z m-7955 54 c0 -123 8 -149 47 -149 54 0 63 22 63 147
l0 113 46 0 46 0 -4 -122 c-3 -75 -10 -134 -18 -151 -20 -41 -69 -67 -126 -67
-61 0 -92 16 -121 59 -21 31 -23 45 -23 157 l0 124 45 0 45 0 0 -111z m1839
14 c-2 -90 0 -97 20 -104 29 -11 31 -69 1 -69 -14 0 -21 -9 -26 -35 -6 -32 -9
-35 -39 -35 -31 0 -34 3 -37 33 l-3 32 -77 3 -78 3 0 32 c0 22 15 55 46 102
91 137 89 135 145 135 l50 0 -2 -97z m4062 25 l36 -73 37 73 36 72 50 0 50 0
0 -170 0 -170 -40 0 -40 0 0 103 -1 102 -35 -68 c-45 -89 -64 -88 -110 3 l-33
65 -3 -100 -3 -100 -40 0 -40 0 -3 168 -2 167 53 0 53 0 35 -72z m-5101 -28
l0 -40 40 0 c39 0 40 -1 40 -35 0 -34 -1 -35 -40 -35 l-40 0 0 -41 c0 -39 -1
-40 -32 -37 -30 3 -33 6 -36 40 -3 35 -5 37 -40 40 -34 3 -37 6 -37 33 0 27 3
30 38 33 36 3 37 4 37 43 0 38 1 39 35 39 34 0 35 -1 35 -40z m1957 8 l64 2
-3 -122 -3 -123 -28 -3 c-16 -2 -34 1 -40 7 -8 6 -18 6 -27 1 -45 -29 -116 2
-140 60 -16 39 -8 115 16 142 22 25 75 49 88 40 5 -3 38 -5 73 -4z m969 -19
c64 -53 54 -175 -18 -215 -31 -18 -83 -17 -118 1 -88 46 -75 200 20 231 36 12
91 4 116 -17z m887 20 l48 2 -3 -146 c-3 -146 -3 -147 -31 -170 -40 -35 -90
-42 -145 -19 -53 22 -58 31 -34 62 17 22 19 22 55 7 28 -11 43 -13 57 -5 11 6
20 12 20 15 0 2 3 11 7 20 5 15 3 16 -15 6 -29 -16 -79 -14 -107 5 -25 16 -33
30 -46 84 -17 74 56 161 121 143 14 -3 47 -5 73 -4z m512 -3 c41 -18 75 -69
75 -113 l0 -33 -81 0 c-71 0 -80 -2 -69 -15 15 -18 51 -20 67 -4 9 9 18 8 37
-5 33 -21 32 -29 0 -55 -54 -43 -149 -19 -179 45 -38 80 4 171 86 187 13 2 25
5 27 6 1 0 18 -5 37 -13z m3052 0 l54 -1 2 -120 2 -120 -37 -3 c-23 -2 -38 1
-38 8 0 7 -6 8 -19 0 -36 -19 -79 -12 -113 19 -31 27 -33 34 -33 94 0 56 4 69
24 91 25 27 78 48 95 38 5 -3 34 -6 63 -6z m247 4 c7 0 26 -12 41 -26 l28 -26
-32 -20 c-24 -16 -35 -18 -44 -9 -18 18 -45 13 -63 -14 -28 -43 12 -99 55 -76
19 10 81 -5 81 -20 0 -4 -14 -19 -31 -33 -90 -76 -227 23 -189 138 18 55 87
103 128 90 8 -2 19 -4 26 -4z m-8022 -16 l31 -16 -25 -25 c-22 -21 -29 -23
-48 -13 -23 12 -55 6 -46 -9 3 -4 22 -11 42 -14 51 -9 74 -32 74 -78 0 -50
-35 -79 -97 -79 -48 0 -103 23 -103 44 0 7 8 20 18 30 17 15 21 15 51 0 32
-16 67 -13 57 5 -4 5 -24 12 -46 16 -75 13 -103 92 -49 138 27 22 99 23 141 1z
m2018 -109 l0 -125 -40 0 -40 0 0 125 0 125 40 0 40 0 0 -125z m988 113 c9 -9
12 -9 12 0 0 7 16 12 40 12 l41 0 -3 -122 -3 -123 -28 -3 c-16 -2 -34 2 -42 8
-9 7 -15 8 -20 0 -3 -5 -24 -10 -45 -10 -73 0 -128 75 -111 152 10 43 30 74
56 87 28 14 89 13 103 -1z m977 -106 c0 -63 -3 -118 -6 -124 -3 -5 -21 -8 -40
-6 l-34 3 -3 109 c-1 61 0 116 3 123 3 10 17 13 42 11 l38 -3 0 -113z m395 39
c0 -86 15 -115 48 -94 13 7 18 30 22 89 l5 79 38 3 37 3 0 -125 0 -126 -34 0
c-19 0 -36 6 -39 13 -4 10 -7 10 -18 0 -7 -7 -30 -13 -50 -13 -29 0 -43 7 -63
31 -24 28 -26 38 -26 125 l0 94 40 0 40 0 0 -79z m1615 -46 l0 -120 -37 -3
c-23 -2 -38 1 -38 8 0 7 -6 8 -19 0 -26 -13 -67 -13 -94 2 -73 38 -83 155 -19
215 22 21 33 22 116 20 l91 -2 0 -120z m121 114 c4 -8 9 -8 17 0 6 6 19 11 29
11 14 0 18 -8 18 -38 0 -33 -4 -39 -30 -49 -28 -11 -29 -13 -32 -84 l-3 -74
-37 -3 -38 -3 0 125 0 126 34 0 c19 0 38 -5 42 -11z m174 1 c0 -7 6 -7 19 0
33 17 41 12 41 -28 0 -33 -4 -39 -30 -49 -30 -11 -30 -12 -30 -88 l0 -76 -37
3 -38 3 -3 123 -3 122 41 0 c22 0 40 -5 40 -10z m260 -5 c56 -29 78 -117 44
-175 -46 -77 -159 -81 -204 -8 -36 59 -20 146 32 182 28 20 90 20 128 1z m277
3 c8 -6 19 -6 32 1 33 18 83 13 108 -11 21 -20 23 -30 23 -125 l0 -104 -37 3
-38 3 -3 83 c-2 65 -6 84 -19 89 -28 11 -43 -25 -43 -104 l0 -73 -35 0 -35 0
0 79 c0 82 -13 110 -44 98 -11 -5 -16 -27 -18 -89 l-3 -83 -35 0 -35 0 -3 122
-3 121 88 0 c48 0 93 -4 100 -10z m1474 -16 c24 -21 32 -38 36 -75 l6 -47 -83
0 c-72 0 -81 -2 -70 -15 15 -18 43 -19 72 -4 17 9 24 7 41 -10 l21 -21 -21
-21 c-28 -29 -100 -36 -141 -15 -57 30 -80 113 -47 176 33 64 131 81 186 32z
m-1547 -496 c78 -30 132 -64 181 -114 54 -54 111 -164 125 -241 14 -77 13
-1184 -1 -1253 -30 -142 -122 -264 -247 -325 l-76 -38 -661 0 -661 0 -75 37
c-128 64 -222 187 -249 327 -6 33 -10 282 -10 635 0 631 1 639 56 749 33 64
122 152 192 190 101 54 123 56 777 54 558 -2 603 -4 649 -21z m-4774 -836 c0
-589 -2 -670 -15 -670 -13 0 -15 81 -15 670 0 589 2 670 15 670 13 0 15 -81
15 -670z m-830 380 c0 -117 1 -120 23 -122 12 -1 29 -2 37 -4 8 -1 54 -2 103
-3 l87 -1 0 -115 0 -115 -149 0 -150 0 -102 110 c-70 74 -110 110 -124 109
-20 -1 -20 -1 1 -7 12 -4 69 -57 127 -118 97 -101 105 -112 84 -118 -36 -9
-224 -5 -322 7 l-90 12 -3 119 -3 119 65 -6 c38 -4 68 -2 71 3 4 6 43 11 88
12 45 0 67 3 48 5 l-34 4 7 61 c3 34 6 85 6 114 l0 54 115 0 115 0 0 -120z
m1833 -122 c-13 -12 -25 -19 -29 -15 -10 10 16 37 34 37 13 0 12 -4 -5 -22z
m767 13 c0 -11 -29 -35 -35 -29 -10 9 7 38 21 38 8 0 14 -4 14 -9z m-1092 -57
c22 -15 30 -44 13 -44 -5 0 -14 7 -21 16 -19 22 -65 14 -65 -11 0 -14 11 -23
40 -33 64 -20 81 -56 45 -92 -27 -27 -83 -27 -111 1 -14 14 -18 24 -11 31 7 7
17 3 31 -11 25 -25 53 -27 71 -6 19 23 5 43 -39 55 -23 6 -45 20 -51 31 -29
54 44 101 98 63z m539 -16 c30 -28 37 -69 19 -112 -17 -40 -46 -56 -107 -56
l-39 0 0 94 c0 58 4 96 11 98 26 9 96 -6 116 -24z m473 -54 c0 -69 2 -75 24
-85 17 -8 29 -8 44 0 18 10 22 22 24 86 2 42 7 75 13 75 6 0 11 -33 13 -75 3
-88 -14 -115 -73 -115 -56 0 -75 29 -75 115 0 40 3 75 6 78 16 16 24 -10 24
-79z m664 65 c14 -11 26 -27 26 -35 0 -20 -13 -18 -33 6 -37 44 -97 13 -97
-52 0 -42 27 -78 58 -78 11 0 27 9 37 20 20 22 35 26 35 10 0 -22 -41 -50 -73
-50 -65 0 -102 74 -73 143 23 56 75 72 120 36z m165 -70 c17 -44 31 -87 31
-95 0 -25 -18 -15 -29 16 -9 26 -15 30 -46 30 -31 0 -37 -4 -46 -30 -11 -31
-29 -41 -29 -16 0 19 50 157 63 173 15 20 23 8 56 -78z m-1670 -5 c17 -47 31
-90 31 -95 0 -19 -20 -8 -32 19 -10 20 -22 28 -45 30 -27 3 -34 -2 -48 -27
-16 -33 -42 -44 -30 -13 3 9 18 52 33 94 36 104 50 103 91 -8z m81 17 c0 -74
14 -101 50 -101 35 0 51 38 44 107 -6 54 -4 63 10 63 13 0 16 -12 16 -75 0
-62 -4 -79 -20 -95 -24 -24 -67 -26 -97 -5 -25 18 -39 85 -29 140 11 59 26 39
26 -34z m470 59 c0 -5 -22 -10 -50 -10 -49 0 -50 -1 -50 -30 0 -29 2 -30 45
-30 57 0 59 -18 3 -22 -40 -3 -43 -5 -43 -33 0 -29 2 -30 48 -33 68 -4 58 -22
-13 -22 l-60 0 0 95 0 95 60 0 c33 0 60 -4 60 -10z m218 -2 c16 -16 15 -73 -1
-86 -6 -6 -28 -12 -47 -14 -32 -4 -35 -7 -38 -41 -2 -24 -8 -37 -18 -37 -11 0
-14 19 -14 95 l0 95 53 0 c29 0 58 -5 65 -12z m346 -4 c20 -19 20 -38 2 -56
-11 -12 -11 -17 5 -36 34 -43 0 -82 -73 -82 -43 0 -48 2 -49 23 -1 12 -3 33
-5 47 -1 14 0 46 3 73 l6 47 48 0 c30 0 53 -6 63 -16z m77 9 c1 -5 3 -42 5
-83 l2 -75 34 -2 c18 -1 39 -2 46 -2 7 -1 10 -5 7 -11 -3 -5 -31 -10 -61 -10
l-54 0 0 95 c0 57 4 95 10 95 6 0 11 -3 11 -7z m149 -88 c0 -78 -3 -95 -15
-95 -12 0 -15 17 -15 95 0 78 3 95 15 95 12 0 15 -17 15 -95z m-2982 -128
l-38 -11 0 -108 0 -108 -109 0 c-61 0 -112 3 -114 8 -3 4 -8 51 -12 105 l-7
98 115 -3 c107 -3 114 -2 106 15 -9 15 -4 17 43 16 l53 -2 -37 -10z m1604
-127 c28 -28 30 -36 25 -78 -7 -62 -32 -82 -103 -82 l-54 0 0 88 c0 49 3 92 7
95 3 4 26 7 50 7 36 0 50 -6 75 -30z m178 21 c0 -6 -19 -11 -42 -13 -39 -3
-43 -6 -46 -30 -3 -27 -2 -28 43 -28 60 0 57 -24 -3 -28 -39 -3 -42 -5 -42
-33 0 -28 2 -29 45 -29 25 0 45 -4 45 -10 0 -6 -27 -10 -60 -10 l-60 0 0 95 0
95 60 0 c33 0 60 -4 60 -9z m245 -16 c30 -29 34 -97 9 -133 -13 -18 -13 -26
-3 -38 17 -21 3 -30 -18 -11 -11 9 -28 13 -43 10 -54 -10 -103 65 -86 132 16
65 94 88 141 40z m85 -41 c0 -81 11 -104 50 -104 39 0 50 23 50 104 0 37 4 66
10 66 6 0 10 -32 10 -77 0 -90 -14 -113 -68 -113 -59 0 -72 21 -72 112 0 45 4
78 10 78 6 0 10 -29 10 -66z m248 39 c5 -16 21 -58 35 -95 19 -49 22 -68 13
-68 -7 0 -18 11 -24 25 -9 20 -19 25 -47 25 -29 0 -37 -5 -45 -25 -5 -14 -16
-25 -24 -25 -10 0 -5 24 22 95 19 52 41 95 48 95 6 0 16 -12 22 -27z m112 -58
l0 -85 45 0 c25 0 45 -4 45 -10 0 -6 -27 -10 -60 -10 l-60 0 0 95 c0 78 3 95
15 95 12 0 15 -16 15 -85z m140 -10 c0 -57 -4 -95 -10 -95 -6 0 -10 38 -10 95
0 57 4 95 10 95 6 0 10 -38 10 -95z m174 64 c29 -35 33 -76 11 -118 -17 -35
-32 -41 -96 -41 l-49 0 0 79 c0 107 2 111 60 111 42 0 52 -4 74 -31z m165 -55
c17 -47 31 -90 31 -95 0 -18 -17 -8 -28 16 -10 20 -19 25 -51 25 -33 0 -40 -4
-45 -25 -4 -14 -13 -25 -21 -25 -14 0 0 47 50 173 14 35 33 15 64 -69z m188
62 c23 -20 28 -32 28 -69 0 -67 -31 -97 -102 -97 l-53 0 0 95 0 95 49 0 c38 0
56 -6 78 -24z m183 15 c0 -6 -21 -11 -47 -13 -43 -3 -46 -5 -48 -30 -1 -26 2
-28 42 -28 32 0 43 -4 43 -15 0 -11 -11 -15 -40 -15 -38 0 -40 -2 -40 -30 0
-29 2 -30 45 -30 25 0 45 -4 45 -10 0 -6 -27 -10 -60 -10 l-60 0 0 95 0 95 60
0 c33 0 60 -4 60 -9z m-3610 -226 c0 -10 -10 -15 -27 -15 -61 0 -71 -42 -14
-55 59 -13 81 -87 39 -132 -18 -19 -32 -23 -85 -23 -49 0 -63 3 -63 15 0 11
11 15 38 15 20 0 43 4 50 9 22 14 9 44 -23 54 -46 15 -65 36 -65 74 0 51 29
73 95 73 42 0 55 -3 55 -15z m110 -74 c0 -96 9 -115 52 -109 22 3 23 7 26 101
2 89 4 97 22 97 18 0 20 -7 20 -94 0 -79 -3 -97 -21 -120 -18 -22 -28 -26 -74
-26 -46 0 -56 4 -74 26 -18 23 -21 41 -21 120 l0 94 35 0 35 0 0 -89z m300 74
c0 -10 -10 -15 -29 -15 -65 0 -83 -30 -29 -49 50 -18 68 -39 68 -83 0 -59 -26
-78 -105 -78 -51 0 -65 3 -65 15 0 11 11 15 43 15 23 0 48 4 55 9 24 15 8 42
-33 57 -47 16 -65 37 -65 76 0 47 31 68 100 68 47 0 60 -3 60 -15z"/>
<path d="M3672 6375 c0 -16 2 -22 5 -12 2 9 2 23 0 30 -3 6 -5 -1 -5 -18z"/>
<path d="M2447 5212 c-36 -40 -9 -112 42 -112 53 0 79 60 45 108 -19 27 -64
29 -87 4z"/>
<path d="M3166 5208 c-34 -48 -8 -108 46 -108 33 0 58 29 58 68 0 56 -73 84
-104 40z"/>
<path d="M3997 5212 c-21 -23 -22 -76 -1 -96 38 -38 104 -5 104 51 0 52 -70
82 -103 45z"/>
<path d="M5897 5212 c-37 -40 -10 -112 41 -112 29 0 62 34 62 65 0 54 -69 85
-103 47z"/>
<path d="M6716 5214 c-9 -8 -16 -31 -16 -49 0 -52 47 -83 87 -57 32 20 32 94
0 114 -20 13 -55 9 -71 -8z"/>
<path d="M10146 5209 c-42 -50 -87 -149 -67 -149 9 0 58 52 99 107 50 65 20
104 -32 42z"/>
<path d="M10526 4940 c-31 -47 -32 -54 -7 -41 18 10 48 68 39 77 -3 2 -17 -14
-32 -36z"/>
<path d="M2806 5208 c-32 -46 -7 -108 43 -108 35 0 61 28 61 67 0 58 -73 86
-104 41z"/>
<path d="M3532 5228 c-21 -21 -13 -28 33 -28 25 0 45 4 45 8 0 15 -24 32 -45
32 -12 0 -26 -5 -33 -12z"/>
<path d="M4352 5228 c-22 -22 -13 -28 38 -28 28 0 50 4 50 8 0 16 -25 32 -50
32 -14 0 -31 -5 -38 -12z"/>
<path d="M5189 5214 c-7 -9 -13 -31 -13 -49 0 -42 19 -65 53 -65 63 1 90 70
45 115 -20 20 -68 19 -85 -1z"/>
<path d="M6252 5228 c-22 -22 -13 -28 38 -28 28 0 50 4 50 8 0 16 -25 32 -50
32 -14 0 -31 -5 -38 -12z"/>
<path d="M7070 5210 c-39 -39 -14 -110 39 -110 35 0 61 28 61 67 0 56 -60 83
-100 43z"/>
<path d="M7887 5212 c-22 -25 -21 -75 1 -95 40 -36 102 -9 102 44 0 60 -66 92
-103 51z"/>
<path d="M9206 5208 c-32 -46 -7 -108 43 -108 35 0 61 28 61 67 0 58 -73 86
-104 41z"/>
<path d="M3073 4503 c-7 -2 -13 -15 -13 -29 0 -28 41 -44 65 -24 36 30 -6 72
-52 53z"/>
<path d="M3066 4367 c-25 -18 -16 -50 17 -61 32 -12 60 1 66 29 4 20 -23 45
-49 45 -9 0 -24 -6 -34 -13z"/>
<path d="M3382 4426 c-18 -24 -32 -47 -32 -50 0 -3 16 -6 35 -6 l35 0 0 50 c0
28 -1 50 -3 50 -2 0 -18 -20 -35 -44z"/>
<path d="M4328 4399 c-24 -14 -23 -62 2 -84 18 -17 21 -17 45 -1 31 21 35 70
6 86 -24 12 -31 12 -53 -1z"/>
<path d="M5274 4385 c-24 -37 -6 -75 35 -75 30 0 41 14 41 54 0 48 -49 62 -76
21z"/>
<path d="M6166 4394 c-9 -8 -16 -23 -16 -33 0 -22 30 -51 53 -51 17 0 47 36
47 57 0 18 -29 43 -50 43 -10 0 -26 -7 -34 -16z"/>
<path d="M6715 4406 c-17 -12 -15 -14 23 -18 45 -4 54 5 23 22 -25 13 -23 13
-46 -4z"/>
<path d="M9734 4385 c-32 -49 19 -101 65 -68 25 17 27 55 5 77 -23 23 -51 19
-70 -9z"/>
<path d="M5002 4398 c-25 -25 -5 -98 26 -98 20 0 52 34 52 55 0 44 -50 71 -78
43z"/>
<path d="M7894 4385 c-14 -21 -15 -31 -5 -51 9 -21 17 -25 43 -22 43 4 61 47
33 78 -25 27 -51 25 -71 -5z"/>
<path d="M8514 4385 c-24 -37 -6 -75 35 -75 30 0 41 14 41 55 0 23 -25 45 -49
45 -6 0 -18 -11 -27 -25z"/>
<path d="M10255 4406 c-17 -12 -16 -14 18 -18 43 -5 51 0 36 19 -14 17 -30 17
-54 -1z"/>
<path d="M7470 3848 c-76 -29 -168 -122 -201 -203 l-24 -60 0 -610 0 -610 23
-56 c26 -64 87 -139 142 -174 88 -55 96 -56 746 -53 l599 3 60 28 c76 35 128
86 168 162 l32 60 0 640 0 640 -23 52 c-33 71 -121 154 -195 181 -57 22 -66
22 -665 21 -593 0 -608 -1 -662 -21z m628 -142 c-4 -21 -1 -23 25 -22 24 1 32
-4 39 -24 5 -16 6 -8 2 23 -5 44 -4 47 18 46 13 0 32 -4 42 -8 19 -7 18 -8 -4
-24 l-23 -16 41 -7 c28 -4 42 -12 42 -22 0 -8 3 -12 7 -9 3 4 6 20 5 37 0 17
2 29 6 27 47 -21 60 -31 55 -43 -3 -8 -10 -11 -16 -7 -6 3 -7 1 -3 -6 4 -6 0
-25 -8 -43 -9 -17 -16 -37 -16 -45 0 -14 -10 -16 -34 -7 -8 3 -12 13 -9 22 3
13 2 14 -4 4 -17 -23 -123 4 -123 32 0 3 8 6 18 7 12 0 13 2 3 6 -8 3 -22 -5
-31 -17 -18 -24 -60 -35 -60 -16 0 6 -5 3 -11 -6 -5 -10 -18 -18 -27 -18 -10
0 -27 -7 -40 -15 -21 -15 -22 -14 -43 30 -12 25 -19 51 -16 59 4 10 1 13 -7
10 -7 -3 -16 2 -19 10 -7 17 -3 21 36 30 27 6 32 0 28 -32 -1 -6 3 -20 9 -30
10 -15 11 -14 6 6 -5 24 -2 26 49 37 25 6 27 8 12 16 -32 18 -17 32 42 38 9 1
12 -7 9 -23z m-338 -76 c39 0 39 0 33 -35 -5 -31 -3 -35 12 -29 10 4 21 1 26
-7 6 -10 9 -10 9 -1 0 6 5 12 10 12 20 0 9 -21 -20 -39 -16 -10 -27 -20 -24
-24 3 -3 14 -1 24 5 25 16 46 -3 55 -50 8 -40 7 -233 -1 -241 -2 -3 -11 5 -20
17 -8 12 -21 22 -28 22 -8 0 -19 7 -26 15 -19 23 16 32 40 10 24 -22 27 -9 3
17 -20 22 -53 24 -53 3 0 -21 -20 -19 -47 7 -20 18 -23 19 -23 5 0 -22 -16
-22 -40 1 -17 15 -18 24 -10 53 12 40 13 74 1 45 -7 -18 -8 -18 -14 -3 -4 10
-2 28 3 42 7 19 6 26 -8 34 -15 9 -15 12 6 34 l22 24 -20 18 -21 19 33 31 c18
16 35 27 36 23 2 -5 21 -8 42 -8z m800 6 c0 -8 -4 -16 -10 -18 -6 -2 -6 -8 0
-18 8 -13 10 -12 10 3 0 21 23 22 45 1 15 -15 15 -18 0 -34 -15 -16 -19 -17
-46 -3 -17 8 -33 12 -36 9 -5 -5 3 -9 45 -22 11 -3 9 -12 -7 -40 -25 -42 -27
-56 -5 -28 15 18 15 17 10 -16 -4 -23 -18 -46 -43 -69 -26 -23 -29 -29 -12
-18 26 16 27 16 60 -36 19 -29 39 -61 45 -72 6 -11 35 -39 65 -61 61 -47 79
-81 71 -137 -4 -33 -1 -43 22 -63 26 -25 36 -64 15 -64 -8 0 -9 -15 -4 -46 4
-32 3 -44 -4 -40 -6 4 -16 -3 -21 -16 -17 -36 -110 -34 -110 3 0 10 41 23 64
20 24 -3 36 15 36 56 0 26 -8 37 -49 66 -40 29 -52 46 -69 94 -17 49 -21 53
-22 28 0 -25 -2 -27 -11 -12 -6 9 -32 29 -60 42 -53 27 -58 35 -33 56 8 7 22
26 30 43 l15 31 -26 -33 c-15 -18 -45 -44 -66 -58 -48 -30 -69 -62 -72 -107
-2 -20 -6 -39 -10 -43 -4 -4 -7 -46 -7 -94 0 -53 -5 -91 -12 -98 -19 -19 -30
-14 -23 11 5 17 4 19 -4 7 -6 -8 -11 -23 -11 -34 0 -16 -6 -18 -52 -11 -29 3
-61 6 -70 6 -10 0 -20 4 -23 9 -3 6 -15 6 -29 0 -13 -5 -26 -6 -29 -3 -9 8
-80 10 -103 2 -13 -4 -26 -3 -33 4 -8 8 -11 7 -11 -6 0 -22 -12 -21 -44 4 -24
19 -26 26 -26 102 -1 56 -5 88 -15 101 -8 11 -15 25 -15 30 0 6 9 -4 20 -22
11 -18 20 -50 20 -72 0 -29 4 -40 15 -40 8 0 15 -7 15 -15 0 -8 4 -15 10 -15
5 0 6 8 3 17 -5 12 -2 15 9 11 10 -4 15 -1 14 10 -1 10 8 18 22 20 24 4 24 3
27 47 2 46 14 85 25 85 6 0 10 -27 10 -59 0 -43 4 -60 15 -65 8 -3 15 -15 15
-26 0 -17 6 -20 45 -20 41 0 45 2 45 25 0 18 5 25 19 25 11 0 22 6 25 13 5 9
7 9 12 0 3 -7 12 -9 20 -6 12 4 19 -15 16 -48 0 -3 18 -3 41 0 42 6 42 6 45
51 2 25 7 49 13 54 22 23 7 27 -17 5 l-27 -24 6 43 5 42 -204 0 -204 0 0 -35
c0 -49 -17 -44 -42 13 -11 26 -43 71 -71 100 -53 53 -76 67 -57 33 19 -37 11
-50 -51 -81 -34 -16 -62 -30 -64 -30 -2 0 -1 10 1 23 3 12 -2 4 -11 -18 -29
-73 -40 -89 -75 -113 -19 -13 -37 -29 -39 -35 -3 -8 1 -8 12 1 14 12 15 11 4
-12 -8 -16 -14 -21 -19 -13 -5 7 -8 0 -8 -16 0 -16 4 -26 10 -22 5 3 7 0 4 -9
-6 -16 36 -33 54 -22 16 10 34 -20 20 -32 -11 -8 -58 -10 -65 -2 -2 1 -8 3
-14 4 -23 2 -39 42 -39 95 0 40 -3 52 -10 41 -6 -9 -10 -10 -10 -3 0 6 11 25
25 41 21 25 25 40 24 81 -2 34 -7 52 -17 56 -12 4 -13 3 -2 -10 9 -11 9 -15 1
-15 -6 0 -17 11 -23 25 -15 33 5 77 62 139 22 23 46 59 55 78 13 33 13 36 -3
40 -29 8 -42 -2 -42 -32 0 -23 -6 -30 -32 -39 -32 -11 -52 -6 -29 8 7 5 12 11
12 15 -4 29 4 44 33 64 39 27 69 23 87 -10 19 -36 1 -80 -61 -151 -59 -67 -70
-90 -50 -102 11 -6 121 80 157 123 18 22 23 23 23 10 0 -21 16 -24 23 -5 3 8
10 6 21 -8 14 -19 15 -19 16 -1 0 21 11 18 69 -18 23 -15 52 -44 66 -66 14
-22 26 -40 28 -40 1 0 2 51 2 113 0 75 5 119 13 132 12 18 13 18 8 1 -12 -36
-19 -156 -9 -156 5 0 22 14 39 31 39 41 81 66 127 74 20 4 37 11 37 16 0 5 7
9 15 9 8 0 15 -4 15 -9 0 -5 19 -14 43 -19 44 -12 115 -60 153 -105 15 -16 20
-33 17 -51 -3 -14 -3 -26 0 -26 9 0 97 112 97 123 0 6 -7 1 -16 -11 -8 -12
-19 -22 -25 -22 -17 0 -9 37 15 73 15 22 19 34 10 30 -21 -8 -17 17 6 37 16
14 18 19 6 23 -8 3 -17 16 -19 29 -4 18 -5 17 -5 -7 0 -46 -2 -51 -12 -35 -14
22 -12 57 4 72 10 9 11 17 2 30 -8 14 -5 23 17 46 18 19 25 35 21 45 -10 27
13 47 47 40 18 -3 29 -1 29 6 0 6 5 11 10 11 6 0 10 -6 10 -14z m-284 -89 c20
-11 20 -14 7 -46 -13 -30 -17 -33 -46 -27 -91 17 -144 17 -187 2 -50 -17 -55
-15 -64 30 -6 26 -3 32 21 44 62 29 213 27 269 -3z m324 -32 c0 -25 -14 -33
-25 -15 -3 6 -2 10 4 10 6 0 8 7 5 15 -4 8 -1 15 5 15 6 0 11 -11 11 -25z
m-606 -66 c13 -12 7 -15 -36 -22 -32 -5 -38 -3 -38 12 0 10 3 21 6 24 8 8 55
-2 68 -14z m346 -10 c0 -21 -3 -22 -49 -13 -36 8 -40 21 -9 33 31 11 58 2 58
-20z m408 -28 c12 -11 22 -26 22 -34 0 -8 7 -20 16 -28 14 -11 14 -13 -1 -22
-22 -12 -63 16 -67 45 -2 13 -11 24 -20 26 -14 3 -18 -3 -18 -27 0 -24 13 -45
54 -90 58 -63 75 -106 56 -142 -16 -28 -31 -7 -23 32 4 23 -3 37 -46 82 -49
52 -64 76 -38 61 7 -4 9 -3 4 2 -5 5 -14 9 -20 9 -16 0 -21 73 -6 91 16 20 60
17 87 -5z m-385 -21 c-4 -24 0 -35 22 -58 16 -15 25 -22 22 -16 -4 7 0 17 8
24 20 16 19 12 -6 -45 -15 -33 -24 -44 -29 -35 -6 9 -10 6 -13 -11 -3 -15 -5
-7 -6 21 -2 25 -4 54 -7 65 -2 11 -5 30 -6 43 -2 22 -4 22 -188 24 l-185 2
190 6 c105 3 193 7 197 8 4 1 5 -12 1 -28z m187 -266 l45 -24 -40 6 c-87 12
-95 15 -95 35 0 24 19 20 90 -17z m-750 -4 c-8 -5 -31 -10 -51 -10 -19 0 -44
-7 -55 -15 -23 -17 -38 -19 -28 -4 11 19 67 38 109 38 29 1 36 -2 25 -9z m735
-50 c-10 -11 -15 -23 -12 -27 4 -3 7 -1 7 5 0 6 13 18 30 27 28 14 30 14 40
-6 10 -17 8 -23 -7 -34 -15 -12 -19 -11 -24 3 -11 32 -19 -20 -10 -61 5 -21 7
-36 4 -34 -2 3 -23 -15 -46 -40 -47 -51 -79 -72 -85 -54 -2 6 -8 11 -13 11 -6
0 -7 -4 -4 -10 3 -5 1 -10 -4 -10 -14 0 -14 6 -1 31 6 10 15 19 21 19 6 0 7
-6 3 -12 -4 -7 12 3 37 23 44 37 44 37 44 101 0 59 18 109 33 93 3 -3 -3 -14
-13 -25z m-781 -59 c-3 -20 -8 -43 -10 -53 -3 -9 1 -20 7 -24 8 -5 9 -3 4 7
-8 12 -6 12 8 0 9 -7 14 -18 10 -24 -3 -6 -1 -7 5 -3 7 4 12 2 12 -4 0 -6 5
-8 10 -5 6 3 10 1 10 -5 0 -6 4 -9 9 -5 13 8 31 -28 22 -43 -6 -10 -16 -9 -44
3 -20 8 -37 18 -37 21 0 3 6 2 13 -2 6 -5 -5 8 -25 28 -31 29 -38 42 -38 74 0
22 -7 50 -16 63 -13 17 -14 25 -4 34 9 9 17 5 36 -16 28 -32 31 -28 8 11 l-16
27 21 -24 c17 -19 20 -31 15 -60z m-69 28 c11 -17 -1 -21 -15 -4 -8 9 -8 15
-2 15 6 0 14 -5 17 -11z m-8 -315 c15 -12 36 -41 47 -66 23 -56 16 -104 -20
-143 -14 -15 -24 -28 -22 -30 2 -1 13 -8 26 -14 17 -9 22 -20 22 -51 0 -40 0
-40 -39 -40 -34 0 -42 5 -64 39 -33 50 -62 50 -62 0 0 -34 -1 -34 -45 -34
l-45 0 -2 174 c-1 96 0 178 4 183 3 6 43 8 88 6 66 -2 90 -8 112 -24z m291
-21 l3 -43 -60 0 c-58 0 -61 -1 -61 -25 0 -24 3 -25 55 -25 l55 0 0 -45 0 -45
-55 0 c-52 0 -55 -1 -55 -25 0 -24 3 -25 60 -25 l60 0 0 -45 0 -46 -102 3
-103 3 -3 183 -2 183 102 -3 103 -3 3 -42z m232 2 c0 -43 -1 -45 -30 -45 -50
0 -88 -25 -99 -65 -19 -70 23 -125 94 -125 l36 0 -3 -42 c-3 -37 -7 -44 -27
-46 -76 -11 -168 53 -190 131 -21 74 6 151 71 200 37 28 56 34 111 36 l37 1 0
-45z m118 -137 l-3 -183 -42 -1 -43 -2 0 184 0 184 45 0 45 0 -2 -182z m242
137 l0 -45 -55 0 c-52 0 -55 -1 -55 -25 0 -24 3 -25 56 -25 l55 0 -3 -42 -3
-43 -52 -3 -52 -3 -3 -67 -3 -67 -42 -3 -43 -3 0 185 0 186 100 0 100 0 0 -45z
m230 0 l0 -45 -60 0 c-57 0 -60 -1 -60 -25 0 -24 3 -25 60 -25 l60 0 0 -45 0
-45 -61 0 c-57 0 -60 -1 -57 -22 3 -20 10 -23 61 -26 l57 -3 0 -45 0 -45 -102
3 -103 3 -3 170 c-1 93 0 175 2 182 4 9 33 13 106 13 l100 0 0 -45z m-1250
-380 c16 -20 5 -45 -20 -45 -11 0 -20 -7 -20 -15 0 -8 -4 -15 -10 -15 -5 0
-10 20 -10 45 0 41 2 45 24 45 13 0 29 -7 36 -15z m139 1 c10 -6 11 -76 1 -76
-3 0 -12 6 -19 13 -11 10 -14 10 -18 0 -3 -7 -9 -13 -14 -13 -10 0 -13 73 -3
83 6 6 38 2 53 -7z m146 4 c3 -5 -3 -10 -14 -10 -12 0 -21 -4 -21 -10 0 -5 7
-10 15 -10 21 0 19 -20 -2 -21 -14 0 -13 -2 5 -9 31 -13 27 -20 -12 -20 -34 0
-34 0 -31 43 1 23 3 43 4 45 3 7 51 1 56 -8z m135 0 c0 -5 -7 -10 -15 -10 -8
0 -15 -4 -15 -10 0 -5 7 -10 15 -10 8 0 15 -4 15 -10 0 -5 -7 -10 -15 -10 -9
0 -18 -7 -21 -15 -4 -8 -10 -15 -15 -15 -10 0 -12 73 -2 83 10 11 53 8 53 -3z
m140 -6 c0 -10 -6 -14 -15 -11 -8 4 -17 2 -20 -3 -4 -6 3 -10 14 -10 28 0 27
-20 -1 -21 l-23 -2 23 -4 c32 -6 27 -23 -8 -23 -28 0 -30 2 -30 38 0 45 5 52
37 52 14 0 23 -6 23 -16z m100 -29 c0 -25 -4 -45 -10 -45 -11 0 -14 73 -3 83
11 12 13 8 13 -38z m140 35 c0 -5 -4 -10 -10 -10 -5 0 -10 -16 -10 -35 0 -19
-4 -35 -10 -35 -5 0 -10 13 -10 29 0 17 -6 31 -16 35 -8 3 -12 10 -9 16 8 13
65 13 65 0z m106 -60 c9 0 14 10 14 29 0 38 17 49 26 17 8 -33 -12 -66 -40
-66 -25 0 -36 17 -36 54 0 38 15 40 18 2 2 -23 8 -36 18 -36z m171 62 c6 -4
11 -24 10 -45 -1 -36 -10 -47 -22 -27 -3 6 -11 10 -16 10 -6 0 -7 -4 -4 -10 3
-5 -1 -10 -9 -10 -12 0 -16 10 -16 38 0 21 3 42 7 45 8 9 35 9 50 -1z m158
-43 c8 -33 -1 -51 -14 -30 -7 10 -13 11 -30 2 -26 -14 -27 -5 -6 46 12 29 18
33 29 24 8 -7 18 -26 21 -42z"/>
<path d="M8100 3640 c0 -11 4 -20 9 -20 5 0 7 9 4 20 -3 11 -7 20 -9 20 -2 0
-4 -9 -4 -20z"/>
<path d="M8221 3634 c0 -11 3 -14 6 -6 3 7 2 16 -1 19 -3 4 -6 -2 -5 -13z"/>
<path d="M7722 3608 c6 -18 28 -21 28 -4 0 9 -7 16 -16 16 -9 0 -14 -5 -12
-12z"/>
<path d="M7771 3604 c0 -11 3 -14 6 -6 3 7 2 16 -1 19 -3 4 -6 -2 -5 -13z"/>
<path d="M7680 3596 c-9 -12 -8 -15 8 -13 12 0 18 6 15 14 -6 16 -8 16 -23 -1z"/>
<path d="M7709 3514 c12 -26 29 -39 60 -49 16 -5 21 -4 17 4 -4 6 -15 11 -24
11 -9 0 -27 12 -40 28 -16 19 -20 21 -13 6z"/>
<path d="M7841 3494 c0 -11 3 -14 6 -6 3 7 2 16 -1 19 -3 4 -6 -2 -5 -13z"/>
<path d="M7800 3470 c0 -5 5 -10 11 -10 5 0 7 5 4 10 -3 6 -8 10 -11 10 -2 0
-4 -4 -4 -10z"/>
<path d="M7710 3451 c0 -5 6 -14 13 -18 8 -4 16 -16 20 -25 3 -10 11 -18 17
-18 6 0 2 13 -10 30 -24 33 -40 46 -40 31z"/>
<path d="M7840 3425 c0 -30 -7 -31 -33 -7 -19 16 -20 16 -8 -5 6 -13 21 -23
31 -23 16 0 20 7 20 30 0 17 -2 30 -5 30 -3 0 -5 -11 -5 -25z"/>
<path d="M7810 3366 c0 -2 7 -7 16 -10 8 -3 12 -2 9 4 -6 10 -25 14 -25 6z"/>
<path d="M8481 3598 c-1 -20 4 -28 15 -28 12 0 14 4 7 13 -6 6 -13 19 -16 27
-3 9 -6 3 -6 -12z"/>
<path d="M8510 3604 c0 -8 5 -12 10 -9 6 4 8 11 5 16 -9 14 -15 11 -15 -7z"/>
<path d="M8580 3584 c0 -8 5 -12 10 -9 6 3 10 10 10 16 0 5 -4 9 -10 9 -5 0
-10 -7 -10 -16z"/>
<path d="M8445 3529 c-4 -6 -5 -12 -2 -15 2 -3 7 2 10 11 7 17 1 20 -8 4z"/>
<path d="M8490 3420 c-9 -6 -10 -10 -3 -10 6 0 15 5 18 10 8 12 4 12 -15 0z"/>
<path d="M7590 3339 c0 -5 -22 -34 -49 -62 -50 -54 -71 -86 -71 -109 1 -7 7 1
14 17 7 17 37 56 65 88 46 52 61 77 46 77 -3 0 -5 -5 -5 -11z"/>
<path d="M8100 3300 c-52 -9 -120 -49 -120 -72 0 -4 71 -8 157 -8 l156 0 -24
26 c-43 46 -103 65 -169 54z m56 -27 c7 -10 14 -21 14 -24 0 -5 -35 -5 -69 0
-5 1 31 41 37 41 3 0 11 -8 18 -17z"/>
<path d="M8116 3191 c-3 -5 0 -11 8 -14 15 -6 26 1 26 15 0 11 -27 10 -34 -1z"/>
<path d="M8120 3140 c0 -5 5 -10 10 -10 6 0 10 5 10 10 0 6 -4 10 -10 10 -5 0
-10 -4 -10 -10z"/>
<path d="M7916 2909 c-6 -14 10 -76 18 -68 2 2 1 22 -4 44 -5 27 -9 35 -14 24z"/>
<path d="M7978 2898 c5 -5 16 -8 23 -6 8 3 3 7 -10 11 -17 4 -21 3 -13 -5z"/>
<path d="M8098 2903 c6 -2 18 -2 25 0 6 3 1 5 -13 5 -14 0 -19 -2 -12 -5z"/>
<path d="M8158 2903 c7 -3 16 -2 19 1 4 3 -2 6 -13 5 -11 0 -14 -3 -6 -6z"/>
<path d="M8258 2878 c5 -5 16 -8 23 -6 8 3 3 7 -10 11 -17 4 -21 3 -13 -5z"/>
<path d="M7580 2844 c0 -8 5 -12 10 -9 6 4 8 11 5 16 -9 14 -15 11 -15 -7z"/>
<path d="M8070 2850 c-8 -5 -10 -10 -5 -10 6 0 17 5 25 10 8 5 11 10 5 10 -5
0 -17 -5 -25 -10z"/>
<path d="M8125 2850 c-13 -5 -14 -9 -5 -9 8 0 24 4 35 9 13 5 14 9 5 9 -8 0
-24 -4 -35 -9z"/>
<path d="M8208 2853 c7 -3 16 -2 19 1 4 3 -2 6 -13 5 -11 0 -14 -3 -6 -6z"/>
<path d="M8228 2833 c6 -2 18 -2 25 0 6 3 1 5 -13 5 -14 0 -19 -2 -12 -5z"/>
<path d="M8108 3533 c17 -2 47 -2 65 0 17 2 3 4 -33 4 -36 0 -50 -2 -32 -4z"/>
<path d="M8020 3520 c-8 -5 -10 -10 -5 -10 6 0 17 5 25 10 8 5 11 10 5 10 -5
0 -17 -5 -25 -10z"/>
<path d="M8746 3245 c16 -22 29 -42 31 -44 2 -2 3 0 3 5 0 5 -14 25 -31 44
l-30 35 27 -40z"/>
<path d="M8781 3174 c0 -11 3 -14 6 -6 3 7 2 16 -1 19 -3 4 -6 -2 -5 -13z"/>
<path d="M8470 3139 c0 -5 9 -9 20 -9 11 0 20 2 20 4 0 2 -9 6 -20 9 -11 3
-20 1 -20 -4z"/>
<path d="M7560 2605 c0 -54 1 -55 28 -55 31 0 62 27 62 53 0 25 -36 57 -65 57
-24 0 -25 -3 -25 -55z"/>
<path d="M7500 2310 c0 -5 7 -10 16 -10 8 0 12 5 9 10 -3 6 -10 10 -16 10 -5
0 -9 -4 -9 -10z"/>
<path d="M7645 2310 c-3 -5 1 -10 10 -10 9 0 13 5 10 10 -3 6 -8 10 -10 10 -2
0 -7 -4 -10 -10z"/>
<path d="M8585 2310 c-3 -5 1 -10 10 -10 9 0 13 5 10 10 -3 6 -8 10 -10 10 -2
0 -7 -4 -10 -10z"/>
<path d="M3097 3373 c18 -2 50 -2 70 0 21 2 7 4 -32 4 -38 0 -55 -2 -38 -4z"/>
<path d="M5160 3244 l0 -76 33 6 c45 9 70 42 63 84 -7 47 -23 62 -62 62 l-34
0 0 -76z"/>
<path d="M6501 3280 c-15 -46 -14 -50 14 -50 29 0 30 6 11 50 l-13 32 -12 -32z"/>
<path d="M4830 3288 c0 -7 -3 -23 -6 -35 -5 -19 -2 -23 19 -23 24 0 25 1 14
35 -10 34 -27 48 -27 23z"/>
<path d="M5570 3285 c0 -32 2 -35 30 -35 19 0 33 7 40 19 16 31 2 51 -36 51
-32 0 -34 -2 -34 -35z"/>
<path d="M5917 3314 c-4 -4 -7 -18 -7 -31 0 -18 5 -23 28 -23 36 0 55 13 50
36 -3 19 -56 32 -71 18z"/>
<path d="M5914 3226 c-13 -33 0 -51 35 -49 42 2 59 17 45 41 -14 22 -72 29
-80 8z"/>
<path d="M4757 2993 c-4 -3 -7 -37 -7 -75 0 -68 0 -68 28 -68 15 0 38 7 50 16
29 20 31 85 2 114 -19 19 -60 27 -73 13z"/>
<path d="M5177 2982 c-22 -24 -22 -95 -1 -116 20 -21 54 -21 54 0 0 11 6 13
19 9 40 -12 37 91 -3 117 -20 13 -53 8 -69 -10z"/>
<path d="M5571 2950 c-15 -46 -14 -50 14 -50 28 0 32 20 11 59 l-13 24 -12
-33z"/>
<path d="M5937 2994 c-4 -4 -7 -38 -7 -76 0 -68 0 -68 28 -68 45 0 72 25 72
69 0 20 -6 45 -12 54 -14 18 -69 33 -81 21z"/>
<path d="M6141 2950 c-15 -46 -14 -50 14 -50 23 0 25 3 19 28 -12 51 -20 57
-33 22z"/>
<path d="M6290 2925 l0 -75 30 0 c65 0 93 78 45 125 -13 14 -36 25 -50 25 -25
0 -25 -1 -25 -75z"/>
</g>
</svg>
